<svg xmlns="http://www.w3.org/2000/svg" id="uuid-ccb2cd62-4cf8-402a-ade3-85b69da2b13b" viewBox="0 0 976 261.09"><path d="M488.06,261.04c-162.02,0-324.04,0-486.06,.05-1.68,0-1.99-.35-1.99-2C.05,173.4,.05,87.71,0,2.01,0,.38,.28,0,1.98,0,325.96,.05,649.93,.05,973.9,0c1.76,0,2.1,.39,2.1,2.11-.05,85.69-.05,171.38,0,257.07,0,1.5-.29,1.91-1.87,1.91-162.02-.04-324.04-.04-486.06-.04Z" style="fill:#fdfdfd;"></path><path d="M305.71,170.69c-5.69-.72-11.36,.11-17.05,0-1.23-.02-2.68,.16-2.85-1.57-.15-1.62,1.08-2.21,2.41-2.58,1.12-.31,2.27-.53,3.37-.91,3.38-1.18,4.45-2.67,4.46-6.26,.02-7.67,0-15.34,0-23.01,0-10.21,0-20.41,0-30.62,0-5.44-1.1-6.37-6.15-8.13-3.13-1.09-5.67-.46-8.42,.59-3.35,1.28-5.77,3.65-7.63,6.6-4.05,6.42-8.02,12.89-12.02,19.34-.72,1.16-1.36,2.38-2.11,3.52-2.9,4.44-4.16,9.29-4.03,14.58,.12,5.27,.14,10.54,.11,15.82-.02,4.36,2.29,6.81,6.26,8.03,1.24,.38,2.47,.79,3.71,1.17,.94,.29,1.62,.84,1.55,1.89-.07,1.07-.93,1.45-1.81,1.7-1.42,.4-2.89,.24-4.3,.09-10.13-1.09-20.25-.77-30.37,.13-1.01,.09-2.07,.03-3.06-.18-.85-.18-1.73-.6-1.76-1.72-.03-.97,.6-1.51,1.39-1.82,.82-.32,1.68-.59,2.54-.78,5.35-1.22,7.57-3.93,7.58-9.36,.01-4.93-.16-9.87,.05-14.79,.21-5.09-1.39-9.53-4.1-13.7-5.21-8.03-10.42-16.07-15.63-24.11-2.14-3.3-4.75-6.02-8.7-7.1-.33-.09-.62-.28-.94-.4-1.08-.42-1.75-1.15-1.51-2.35,.24-1.17,1.22-1.37,2.22-1.38,1.99,0,3.99-.12,5.96,.08,9.18,.96,18.34,.35,27.51-.08,.81-.04,1.63-.08,2.43,.25,.65,.27,1.31,.47,1.37,1.32,.06,.79-.39,1.28-.99,1.67-.69,.45-1.47,.69-2.27,.9-1.45,.37-2.89,.79-4.25,1.48-1.59,.81-2.08,2.1-1.81,3.74,.23,1.44,.9,2.72,1.62,3.96,3.95,6.79,7.9,13.59,11.87,20.38,1.44,2.47,2.42,2.5,3.87,.05,4-6.77,7.72-13.68,10.91-20.87,.17-.37,.29-.76,.43-1.15,1.38-4.01,.1-6.32-4.07-7.21-1.4-.3-2.84-.42-4.12-1.17-.72-.42-1.25-.96-1.2-1.76,.05-.89,.84-1.11,1.61-1.32,1.69-.45,3.44-.37,5.11-.19,6.31,.66,12.59,.34,18.87-.35,.75-.08,1.54-.24,2.25-.07,3.63,.86,7.29-.15,10.92,.32,3.67,.48,7.37,.76,11.08,.59,5.4-.25,10.75-1.22,16.19-1.03,5.36,.18,10.67,.64,15.75,2.53,6.69,2.48,11.11,6.91,11.85,14.3,.76,7.54-2.17,13.31-8.55,17.37-1.79,1.14-3.66,2.15-5.68,2.82-1.1,.36-1.47,.83-.75,1.87,6.26,9.15,12.38,18.39,20.41,26.19,4.4,4.27,9.66,5.38,15.43,5.43,3.28,.03,4.28,1.69,2.84,4.72-.85,1.8-2.4,2.83-4.22,3.35-10.13,2.91-23.33,1.93-31.32-8.79-5.74-7.7-11.1-15.6-15.27-24.27-1.25-2.59-3.27-4.14-6.14-4.57-1.42-.21-2.11,.42-2.11,1.78,0,8.08-.02,16.16,.06,24.24,.02,2.24,1.29,3.85,3.29,4.83,1.85,.91,3.83,1.43,5.85,1.86,1.27,.27,2.42,.85,2.28,2.43-.16,1.71-1.49,1.68-2.77,1.68-5.82,0-11.64,0-17.47,0Z" style="fill:#0f294b;"></path><path d="M154.74,132.16c0-8.22,0-16.44,0-24.66,0-.75,0-1.51-.08-2.26-.46-4.9-1.59-6.25-6.32-7.54-.53-.14-1.07-.24-1.58-.43-1.11-.41-1.96-1.08-1.81-2.41,.15-1.31,1.2-1.64,2.26-1.63,3.56,.03,7.12,.14,10.68,.25,11.58,.35,23.16,.6,34.74-.14,2.73-.18,5.4-.9,8.17-.85,1.96,.04,3.08,.76,3.2,2.86,.3,5.12,.55,10.25,.54,15.38,0,.97-.06,2.09-1.27,2.27-1.21,.18-2.12-.53-2.54-1.66-.64-1.72-1.12-3.51-1.8-5.22-1.88-4.73-5.23-7-10.27-7.03-3.29-.02-6.59-.03-9.88,0-3.8,.04-5.83,2.08-5.84,5.87-.02,6.71-.01,13.43,0,20.14,0,2.7,.69,3.37,3.43,3.38,3.36,.02,6.72-.08,10.08,.03,2.86,.09,4.88-1.04,6.18-3.54,.63-1.21,1.24-2.43,1.96-3.6,.44-.72,1.14-1.27,2.06-1.01,1.01,.29,1.33,1.16,1.3,2.1-.03,1.09-.17,2.18-.3,3.27-.52,4.51-.3,9.01,.11,13.52,.11,1.17,.48,2.8-1,3.21-1.65,.46-2.59-1.06-2.85-2.35-1.11-5.45-4.58-6.9-9.66-6.35-2.92,.32-5.89,.15-8.83,.17-1.83,.01-2.57,.98-2.55,2.72,.06,7.4,.08,14.79,.15,22.19,.03,3.24,1.48,5.49,4.68,6.44,1.57,.46,3.17,.85,4.74,1.31,1.28,.38,2.27,1.06,2.02,2.63-.24,1.48-1.38,1.47-2.52,1.46-7.95-.06-15.89-.79-23.84-.42-3.7,.17-7.4,.46-11.09,.37-4.96-.12-9.92,.16-14.88-.23-5.06-.4-10.14-.23-15.21-.13-3.7,.08-7.39,.25-11.09,.32-1.22,.03-2.65,.12-2.88-1.56-.23-1.7,1.09-2.2,2.39-2.54,1.92-.51,3.87-.92,5.62-1.89,2.16-1.19,2.93-2.51,2.35-4.9-1.24-5.11-2.67-10.17-4.01-15.26-.3-1.13-1-1.47-2.11-1.46-6.72,.03-13.44,.04-20.17,0-1.34,0-1.96,.59-2.33,1.81-1.31,4.31-2.75,8.59-4.04,12.9-1.18,3.92-.06,6.16,3.71,7.62,1.27,.49,2.61,.8,3.92,1.19,1.33,.4,2.55,.99,2.3,2.64-.24,1.56-1.6,1.48-2.75,1.45-3.36-.08-6.71-.18-10.06-.34-5.09-.24-10.12,.61-15.19,.72-.82,.02-1.65,0-2.45-.15-.82-.15-1.58-.45-1.68-1.51-.1-1.07,.2-1.92,1.22-2.35,.81-.35,1.67-.6,2.51-.88,4.02-1.34,7.14-3.75,8.86-7.7,7.95-18.22,15.27-36.7,21.61-55.53,1.43-4.25,3.06-6.72,7.57-7.32,2.73-.37,5.06-1.96,7.09-3.9,2.06-1.96,2.62-1.83,3.54,.97,1.81,5.51,3.5,11.07,5.28,16.59,5.23,16.18,10.5,32.35,15.71,48.54,1.19,3.71,3.53,6.21,7.13,7.67,1.76,.71,3.74,.91,5.26,2.2,.25,.21,.48,.23,.7-.02,1.05-1.2,2.59-1.14,3.95-1.53,4.55-1.3,5.79-2.82,5.86-7.61,.07-4.25,.01-8.49,.01-12.74,0-4.52,0-9.04,0-13.56Z" style="fill:#0f294b;"></path><path d="M603.26,125.67c0-7.08,0-13.11,0-19.14,0-5.57-1.72-8.05-6.87-10.03-.51-.19-1-.46-1.44-.78-.64-.46-1.11-1.05-.91-1.91,.18-.77,.82-1.08,1.48-1.26,1.27-.35,2.6-.31,3.89-.2,8.83,.73,17.65,.64,26.49,.14,1.23-.07,2.47-.05,3.7,.07,.89,.09,1.78,.37,1.91,1.51,.13,1.08-.51,1.64-1.4,2.01-.63,.26-1.27,.5-1.93,.69-4.45,1.31-6.51,4.53-6.49,8.91,.06,12.32-.68,24.67,.37,36.96,.66,7.74,4.11,14.06,11.89,17,10.02,3.79,21.33-.5,25.35-9.5,1.61-3.61,2.41-7.47,2.47-11.36,.17-10.47,.54-20.94-.19-31.41-.4-5.74-2.89-9.72-8.6-11.38-.97-.28-2.19-.57-2.01-1.9,.17-1.28,1.39-1.43,2.4-1.47,1.78-.08,3.57-.14,5.34,0,5.69,.45,11.36-.04,17.03-.25,1.39-.05,3.42-.54,3.72,1.52,.28,1.93-1.62,2.28-3.03,2.74-5.35,1.74-7.26,4.64-7.46,11.51-.29,10.12-.49,20.25-.51,30.38-.02,9.98-3.37,18.65-11.07,25.3-7.81,6.74-17.08,8.18-26.98,7.02-8.41-.99-15.76-4.08-21.07-10.97-3.75-4.87-5.46-10.52-5.88-16.57-.43-6.22-.11-12.46-.2-17.63Z" style="fill:#0f294b;"></path><path d="M943.49,171.03c-6.11,.13-11.96-.94-17.42-3.86-2.74-1.47-4.29-3.63-4.88-6.67-.85-4.4-.99-8.83-1.01-13.28,0-1.22,.18-2.2,1.59-2.43,1.45-.24,2.79-.11,3.4,1.51,.66,1.72,1.17,3.5,1.91,5.18,1.77,4.05,4.15,7.71,7.58,10.58,3.48,2.93,7.52,4.12,12.04,3.59,6.17-.72,10.38-7.5,8.94-14.28-.79-3.74-3.09-6.38-6.19-8.33-4.86-3.06-9.82-5.97-14.72-8.97-2.88-1.76-5.51-3.85-7.65-6.48-9.29-11.46-4.8-27.86,9.34-33.74,9.61-3.99,19.28-3.16,28.86,.33,1.62,.59,2.49,1.79,2.91,3.44,1.05,4.21,1.35,8.5,1.52,12.81,.05,1.24,.19,2.6-1.62,2.76-1.69,.14-3.16-.2-3.74-2.07-.65-2.09-1.43-4.13-2.48-6.06-3.49-6.42-9.64-9.24-16.56-7.63-6.75,1.57-9.6,9.85-5.27,15.31,1.86,2.34,4.25,4.06,6.74,5.65,3.92,2.51,7.93,4.87,11.78,7.49,5.23,3.55,10.01,7.67,11.66,14.07,2.41,9.36,1.55,18.14-6.13,25.05-4.64,4.17-10.49,5.41-16.51,5.99-1.36,.13-2.73,.02-4.1,.02Z" style="fill:#0f294b;"></path><path d="M27.08,172.06c-5.98-.05-11.37-1.01-16.52-3.37-3.7-1.7-5.82-4.34-6.36-8.36-.56-4.14-.87-8.29-.81-12.48,.02-1.21,.34-2.02,1.59-2.22,1.33-.21,2.68-.25,3.3,1.31,.58,1.46,1.04,2.96,1.63,4.42,1.9,4.7,4.57,8.87,8.61,12.05,3.42,2.68,7.34,3.61,11.6,3.07,5.84-.74,9.99-7.22,8.89-13.61-.62-3.6-2.59-6.26-5.44-8.38-3.91-2.91-8.36-4.93-12.46-7.55-3.17-2.03-6.32-4.05-9.12-6.62-9.37-8.61-8.72-26.49,4.2-33.83,8.66-4.92,17.8-5.35,27.24-3.03,7.51,1.85,8.1,2.56,8.94,10.27,.27,2.51,.43,5.04,.56,7.56,.06,1.11,.33,2.5-1.38,2.72-1.67,.22-3.19-.02-3.9-1.84-.67-1.71-1.19-3.5-1.98-5.16-3.47-7.27-9.98-10.51-17.31-8.7-6.32,1.56-9.25,9.48-5.44,14.79,1.54,2.14,3.56,3.8,5.75,5.23,3.27,2.13,6.58,4.19,9.89,6.25,3.5,2.18,6.76,4.64,9.74,7.51,9.05,8.69,7.82,26.29-.3,33.3-4.8,4.14-10.48,5.75-16.56,6.43-1.56,.18-3.14,.18-4.34,.24Z" style="fill:#0f294b;"></path><path d="M731.66,131.67c0,8.49,0,16.98,0,25.47,0,4.37,1.13,6,5.24,7.51,1.47,.54,3,.95,4.47,1.48,.94,.34,1.77,.9,1.58,2.09-.2,1.26-1.17,1.64-2.28,1.61-3.63-.1-7.25-.23-10.88-.39-7.4-.33-14.79,.04-22.18,.38-1.36,.06-2.75,.23-4.09-.17-.63-.19-1.33-.44-1.38-1.32-.04-.81,.14-1.53,.91-1.91,.6-.3,1.24-.56,1.89-.74,1.72-.46,3.44-.88,5.07-1.64,2.03-.95,3.22-2.49,3.38-4.75,.06-.89,.15-1.77,.15-2.66,0-15.82,.04-31.64-.03-47.45-.01-2.72,.03-5.47-.49-8.18-.33-1.75-1.31-2.62-3.01-2.84-8.14-1.08-15.32,.31-20.16,7.78-.82,1.27-1.88,2.35-3,3.37-.92,.84-2.06,1.37-3.18,.75-1.13-.62-.91-1.93-.73-2.99,.15-.86,.5-1.71,.89-2.49,2.28-4.55,4.1-9.23,4.43-14.39,.09-1.36,.66-2.54,2.15-2.93,1.56-.42,2.21,.68,2.86,1.76,1.24,2.1,3.13,3.2,5.51,3.5,1.63,.21,3.27,.46,4.9,.47,14.74,.04,29.49,.02,44.23,.02,4.34,0,8.26-1.02,11.33-4.35,.75-.82,1.83-1.47,2.94-.86,1.03,.56,.87,1.72,.78,2.77-.17,2-.81,3.88-1.36,5.78-.93,3.24-1.51,6.52-1.37,9.91,.04,1.02,.07,2.05-.24,3.06-.24,.77-.59,1.42-1.42,1.58-.91,.18-1.59-.27-2.08-1-.77-1.15-1.19-2.45-1.63-3.75-2.04-6.01-5.06-8.17-11.45-8.2-1.99,0-3.98-.03-5.97,0-3.08,.05-4.5,1.21-5.17,4.2-.53,2.35-.62,4.75-.63,7.14-.03,7.46-.01,14.93-.01,22.39Z" style="fill:#0f294b;"></path><path d="M138.96,241.73c-45.34,0-90.69-.01-136.03,.05-1.99,0-2.53-.48-2.46-2.47,.16-4.5,.05-4.5,4.52-4.5,89.93,0,179.87,0,269.8,0,2.98,0,2.6-.32,2.61,2.64,.02,4.27,0,4.27-4.25,4.27H138.96Z" style="fill:#f8a01b;"></path><path d="M838.91,170.14c-8.77-.64-17.53-.68-26.29,0-.75,.06-1.51,.02-2.26,0-1.08-.02-2.12-.24-2.42-1.46-.32-1.32,.56-2.07,1.6-2.54,1.12-.5,2.33-.79,3.47-1.22,3.7-1.41,4.68-2.81,4.69-6.76,0-16.64,0-33.27,0-49.91,0-1.64,0-3.29,0-4.93,0-2.98-1.43-4.91-4.29-5.75-1.25-.37-2.52-.62-3.76-1.02-1.18-.38-2.16-1.05-2.02-2.47,.16-1.55,1.4-1.76,2.59-1.72,4.45,.13,8.89,.32,13.34,.52,6.1,.28,12.18-.36,18.28-.39,.96,0,1.92-.03,2.88-.01,.96,.02,1.79,.29,1.97,1.39,.17,1.06-.17,1.93-1.24,2.32-1.6,.59-3.24,1.06-4.83,1.68-3.7,1.45-4.61,2.83-4.61,6.82,0,17.53,0,35.05,0,52.58,0,4.32,1.58,6.05,5.87,6.15,4.25,.1,8.5,.08,12.75,0,4.28-.07,7.53-2.15,10.13-5.43,2.01-2.54,3.3-5.5,4.84-8.31,.66-1.2,1.3-3.04,3.09-2.3,1.63,.67,1.12,2.34,.81,3.8-1.2,5.6-3.05,11.07-3.6,16.82-.16,1.7-1.18,2.2-2.83,2.19-9.39-.06-18.77-.03-28.16-.03Z" style="fill:#0f294b;"></path><path d="M839.71,242.07c-42.24,0-84.49-.01-126.73,.04-1.99,0-2.73-.34-2.64-2.53,.2-4.43,.06-4.44,4.55-4.44,83.87,0,167.74,0,251.61,0q2.87,0,2.87,2.76,0,4.16-4.16,4.16h-125.49Z" style="fill:#f8a01b;"></path><path d="M774.75,131.38c0-8.83,0-17.66,0-26.49,0-4.89-1.15-6.41-5.86-7.77-.79-.23-1.61-.36-2.38-.62-1.21-.41-2.05-1.18-1.87-2.57,.19-1.45,1.39-1.61,2.49-1.58,4.45,.13,8.89,.32,13.34,.52,6.03,.28,12.05-.36,18.07-.39,.96,0,1.92-.02,2.88-.01,.97,0,1.81,.33,2.01,1.37,.22,1.15-.28,2.01-1.41,2.41-1.61,.57-3.24,1.07-4.84,1.68-2.67,1.01-4.02,2.98-4.02,5.82-.01,18.34-.02,36.69,0,55.03,0,2.48,1.2,4.24,3.49,5.33,1.68,.8,3.48,1.2,5.21,1.82,1.16,.41,1.89,1.13,1.66,2.45-.23,1.32-1.24,1.5-2.33,1.46-4.24-.15-8.48-.31-12.73-.48-6.31-.25-12.59,.18-18.89,.45-.96,.04-1.92,.05-2.88,.02-1.06-.03-2.15-.16-2.31-1.5-.16-1.29,.59-2.08,1.74-2.45,1.23-.4,2.52-.64,3.75-1.05,3.83-1.27,4.88-2.74,4.89-6.78,0-8.9,0-17.8,0-26.69Z" style="fill:#0f294b;"></path><path d="M895.97,169.23c-5.06,.21-10.13,.43-15.19,.63-.75,.03-1.51,.03-2.26-.01-.99-.06-1.98-.25-2.15-1.46-.16-1.17,.42-2.01,1.52-2.37,1.36-.45,2.75-.79,4.13-1.19,3.05-.88,4.76-2.82,4.77-6.08,0-.75,.05-1.5,.05-2.26,0-16.77,0-33.55,0-50.32,0-1.16-.09-2.32-.18-3.48-.18-2.35-1.41-3.97-3.6-4.78-1.47-.54-3.01-.89-4.51-1.37-1.21-.39-2.1-1.16-1.94-2.53,.17-1.38,1.32-1.69,2.46-1.65,4.45,.13,8.89,.32,13.34,.52,6.03,.28,12.05-.36,18.07-.38,1.03,0,2.06-.03,3.08,0,.88,.03,1.66,.32,1.84,1.31,.19,1.05-.12,1.94-1.17,2.35-1.14,.45-2.33,.79-3.49,1.19-4.58,1.58-5.65,3.02-5.65,7.8-.01,17.46-.01,34.91,0,52.37,0,4.26,1.16,5.86,5.2,7.31,1.09,.39,2.22,.67,3.33,1.03,1.2,.4,2.09,1.05,1.88,2.52-.21,1.53-1.38,1.49-2.49,1.49-5.68,0-11.36,0-17.05,0,0-.21,0-.42,0-.63Z" style="fill:#0f294b;"></path><path d="M488.6,81.77c-6.11,5.69-12.21,11.38-18.31,17.08-.36,.34-.72,.6-1.25,.6-6.56,0-13.12,0-20.25,0,3.14-2.96,5.89-5.57,8.65-8.17,9.87-9.3,19.73-18.6,29.6-27.9,.34-.32,.74-.59,1.12-.89,1.18,.14,1.08,1.13,1.09,1.87,.1,5.17,.08,10.34,.02,15.51,0,.7-.25,1.33-.66,1.9Z" style="fill:#1d305e;"></path><path d="M479.53,10.24c3.1-2.97,6.22-5.93,9.31-8.92,.66-.64,1.11-.49,1.67,.13,2.91,3.18,5.84,6.33,8.77,9.48,.44,.48,.82,.8,.12,1.45-6.25,5.83-12.46,11.69-18.7,17.53-.23,.22-.55,.36-.82,.53-1.14-.39-.95-1.41-.96-2.24-.07-5.13-.03-10.27-.03-15.4,0-.92,.24-1.75,.63-2.57Z" style="fill:#1d305e;"></path><path d="M412.48,127.87c-7.5-7.95-15-15.91-22.75-24.12,3.27-.16,6.27-.33,9.28-.46,3.42-.15,6.85-.15,10.26-.46,2.09-.19,3.1,1.03,4.16,2.38,.26,6.9,.1,13.81,.07,20.72,0,.75,.12,1.72-1.02,1.95Z" style="fill:#1d305e;"></path><path d="M489.03,189.53c-2.67,2.55-5.36,5.06-7.98,7.65-.71,.7-1.07,.47-1.61-.12-2.92-3.17-5.86-6.33-8.81-9.47-.57-.61-.67-1,.04-1.64,5.98-5.41,11.93-10.87,17.89-16.31,1.14,.57,1.08,1.64,1.09,2.65,.04,4.97-.03,9.94,.04,14.91,.01,.85-.21,1.61-.65,2.33Z" style="fill:#1d305e;"></path><path d="M616.72,223.88h9.81c-.19,.97-.91,.64-1.34,.77-.97,.28-1.59,.79-1.61,1.84-.06,3.22-.09,6.43-.15,9.65-.02,.84,.44,1.01,1.17,1.01,3.43-.02,6.86-.04,10.29,.01,.99,.01,1.33-.32,1.31-1.3-.05-2.4-.01-4.79-.01-7.19q0-3.46-3.06-4.69h10.32q-3.55,1.41-3.55,5.04c0,5.55,0,11.1,0,16.64q0,3.9,3.4,5.65h-10.12c0-.13-.04-.35,0-.37q3-1.12,3-4.46c0-2.33-.05-4.66,.02-6.99,.03-1.09-.18-1.59-1.43-1.55-3.36,.08-6.72,.06-10.08,0-1-.02-1.3,.32-1.27,1.29,.06,2.6-.02,5.21,.03,7.81,.04,2.45,.08,2.45,3.35,4.27h-10.06c.02-.18,0-.4,.05-.42q3.08-1.01,3.08-4.44c0-5.82,0-11.64,0-17.46q0-3.69-3.13-5.11Z" style="fill:#242021;"></path><path d="M683.44,238.28c3.1,.38,4.63,2.08,5.24,4.75,.35,1.53,.76,3.05,1.15,4.57,.87,3.45,1.51,3.71,4.22,1.7-.16,1.41-1.26,2.45-2.82,2.67-2.13,.3-3.84-.49-4.52-2.34-.56-1.53-.86-3.16-1.25-4.74-.17-.66-.28-1.34-.44-2-1.05-4.27-2.89-5.4-7.19-4.54-1,.2-.72,.83-.73,1.37-.03,2.19-.02,4.38-.01,6.57q0,3.55,3.62,4.96h-10.38c3.64-.3,3.14-2.95,3.14-5.33-.02-5.75,0-11.5,0-17.25q0-3.51-3.15-4.39c-.02-.48,.33-.55,.67-.55,4.03,.06,8.08-.06,12.1,.25,4.33,.33,6.89,2.54,7.28,5.68,.47,3.74-1.5,6.5-5.76,8.07-.25,.09-.49,.24-1.13,.55Z" style="fill:#231f20;"></path><path d="M309.23,237.12c4.38,.86,6.52,3.12,6.51,6.87,0,3.77-2.56,6.51-6.76,7.25-3.82,.67-7.66-.1-11.49,.13-.89,.06-1.79,0-2.95-.27,4.15-.27,3.41-3.18,3.43-5.6,.03-5.62,.01-11.23,0-16.85,0-3.47-.05-3.54-3.23-4.39,.11-.17,.22-.46,.3-.46,4.37,.31,8.76-.44,13.11,.24,4.34,.68,6.56,4.16,5.21,8.01-.78,2.24-2.47,3.54-4.62,4.33-.37,.58,.17,.58,.47,.73Z" style="fill:#231f20;"></path><path d="M382.17,223.96c5.23,.28,10.48-.94,15.67,.35,4.75,1.18,7.47,4.27,8.46,8.99,.6,2.86,.57,5.72-.16,8.54-1.46,5.69-5.71,9.13-12.34,9.59-3.86,.27-7.75,.05-11.65,.05,.05-.35,.04-.57,.08-.58,2.76-.69,3.07-.41,3.07-4.25,0-5.96,0-11.91,0-17.87q0-3.5-3.14-4.82Z" style="fill:#242021;"></path><path d="M582.26,243.17c-1.13-.65-.88-1.62-1.05-2.41-.49-2.33-3.6-3.83-5.68-2.74-.38,.2-.41,.5-.41,.84,.05,3.21,.1,6.43,.15,9.64,.02,1.48,.91,2.04,2.26,2.05,1.64,.01,3.3,.08,4.93-.04,2.98-.21,4.18-1.34,4.83-4.35,.13-.6,.19-1.22,.29-1.82,.05-.28,.19-.55,.5-.55,.47,0,.51,.4,.46,.73-.28,1.98,.06,3.96,.1,5.93,.02,.79-.19,1.11-1.03,1.08-6.09-.24-12.19-.2-18.28-.01-.3,0-.6-.11-.82-.15-.06-.55,.19-.64,.47-.66,2.06-.09,2.59-1.37,2.57-3.18-.03-3.7,0-7.39,0-11.09,0-2.53,0-5.07,0-7.6q0-3.53-3.17-4.69c.67-.79,1.55-.44,2.27-.42,5.27,.18,10.54,.19,15.81-.02,1.06-.04,1.45,.17,1.39,1.32-.11,1.89-.03,3.79-.03,5.94-1.33-.59-1.08-1.59-1.22-2.36-.54-2.95-1.54-3.86-4.53-3.94-1.37-.04-2.74,.05-4.11-.02-1.91-.09-2.77,.84-2.79,2.67-.02,2.87,0,5.75-.06,8.62-.02,.89,.3,1.14,1.18,1.2,3.38,.23,4.3-.47,4.95-3.95,.09-.5-.06-1.3,.74-1.17,.64,.1,.27,.8,.27,1.22,.02,3.23,.01,6.45,.01,9.9Z" style="fill:#252122;"></path><path d="M660.35,231.88c0,3.57,0,6.99,0,10.4,0,.27,.08,.57-.27,.65-.46,.1-.58-.2-.63-.57-.05-.41-.09-.82-.17-1.22-.58-2.83-2.89-4.13-5.56-3.18-.55,.2-.52,.55-.52,.94,.02,3.22,.04,6.43,.08,9.65,.01,1.39,.86,1.94,2.12,1.97,1.64,.04,3.29,.1,4.93,0,3.34-.2,4.35-1.32,5.21-5.44,.09-.45-.25-1.33,.57-1.24,.75,.08,.32,.89,.34,1.37,.09,1.71,.11,3.41,.21,5.12,.04,.68,.1,1.22-.85,1.19-6.3-.26-12.6-.16-18.9-.03-.16,0-.33-.15-.5-.24,.19-.84,.91-.59,1.35-.68,1.22-.26,1.77-1.02,1.77-2.17,.02-7.19,0-14.37,.03-21.56,.01-2.18-1.89-2.06-3.25-2.64,.56-.77,1.23-.5,1.79-.48,5.55,.17,11.09,.2,16.64,0,.61-.02,1.25-.14,1.17,.89-.16,2.03-.22,4.06-.32,6.17-1.15-.3-.76-1.24-.89-1.86-.72-3.47-1.59-4.23-5.11-4.26-.82,0-1.65,0-2.47,0-3.65,0-3.89,.22-3.91,3.78-.02,2.46,.03,4.93-.02,7.39-.02,.95,.25,1.28,1.26,1.32,3.27,.12,4.06-.44,4.76-3.7q.18-.83,1.16-1.59Z" style="fill:#242021;"></path><path d="M427.68,227.1c0,7.09-.01,14.18,0,21.27,0,2.17,1.96,2.06,3.29,2.87h-7.35c3.81-.77,3.01-3.75,3.03-6.29,.03-5.47,.01-10.95,0-16.42,0-3.36-.03-3.38-3.19-4.3,.9-.96,1.93-.16,2.81-.37,3.06-.73,4.72,.78,6.24,3.34,3.26,5.45,6.86,10.7,10.34,16.02,.28,.42,.38,1.03,1.15,1.19,0-5.76,.02-11.47,0-17.18-.01-2.26-1.74-2.62-3.47-3.22h7.75q-3.31,1.67-3.31,5.61c0,6.78,0,13.55-.02,20.33,0,.55,.38,1.38-.34,1.63-.88,.3-1.05-.66-1.4-1.19-5.07-7.78-10.13-15.57-15.19-23.36-.12,.03-.24,.06-.36,.09Z" style="fill:#242021;"></path><path d="M530.25,41.94c2.48,2.31,4.83,4.73,6.89,7.43-.25,5.87-.05,11.75-.12,17.62,0,.82,.06,1.65-.1,2.46-.12,.63-.11,1.44-1.13,1.37-2.28-2.2-4.48-4.47-6.49-6.92-.37-.89-.63-1.79-.62-2.77,0-5.45-.04-10.9,.04-16.35,.02-1.12-.33-2.61,1.52-2.83Z" style="fill:#eda81e;"></path><path d="M608.96,251.3h-11.92c0-.77,.63-.62,1-.64,2.3-.14,2.96-1.51,2.95-3.59-.03-6.98-.04-13.97,.01-20.95,0-1.16-.31-1.47-1.48-1.49-4.56-.06-5.7,.84-6.45,5.26-.11,.67,0,1.49-1.22,2.51,0-3.03-.02-5.55,.01-8.07,.01-.88,.76-.64,1.24-.62,6.44,.19,12.87,.21,19.31-.02,.88-.03,1.42,.09,1.34,1.19-.14,2.04-.38,4.09-.1,6.14,.04,.31,.09,.73-.37,.81-.46,.08-.55-.3-.61-.64-.08-.47-.12-.95-.19-1.42-.57-4.03-1.84-5.05-5.97-5.15-1.5-.04-1.98,.3-1.95,1.89,.11,6.09,.04,12.18,.04,18.28q0,4.63,4.34,6.5Z" style="fill:#252122;"></path><path d="M486.9,232.38c0-2.98,0-5.41,0-7.85,0-1.19,.9-.81,1.48-.81,5.28,.02,10.55,.07,15.83,.11,.55,0,1.1,.02,1.65-.01,3.03-.18,3.07-.18,2.85,2.72-.11,1.51-.15,3,0,4.5,.03,.32,.07,.74-.39,.8-.46,.06-.53-.32-.6-.66-.2-1.07-.31-2.17-.58-3.22-.68-2.59-4.62-4.37-7.03-3.26-.63,.29-.43,.79-.43,1.22,0,7.26,.01,14.51,0,21.77,0,1.72,.74,2.67,2.48,2.92,.46,.07,1.13-.19,1.48,.7h-11.57c.04-.77,.66-.63,1.04-.65,2.32-.13,2.94-1.55,2.93-3.6-.03-6.98-.04-13.97,.02-20.95,0-1.19-.36-1.45-1.5-1.47-4.57-.06-5.67,.82-6.44,5.28-.11,.66,0,1.48-1.21,2.45Z" style="fill:#252122;"></path><path d="M335.49,223.94h7.47c0,.14,0,.37-.02,.37-2.71,.32-3.01,2.12-3.02,4.41,0,5.13,.34,10.27-.26,15.39-.62,5.23-3.68,7.94-8.92,7.9-5.24-.04-8.36-2.82-8.9-7.94-.54-5.12-.18-10.26-.26-15.39-.05-3.47-.01-3.47-3.06-4.7h10.33c-1.29,.93-2.98,.41-3.39,2.02-.31,1.22-.19,2.46-.17,3.68,.11,5.13-.36,10.27,.28,15.39,.45,3.62,2.04,5.29,5.16,5.62,3.62,.38,6.31-1.23,7.46-4.44,.54-1.5,.75-3.07,.77-4.64,.05-4.52-.06-9.04,.05-13.56,.06-2.55-1.44-3.42-3.54-4.11Z" style="fill:#242121;"></path><path d="M437.99,69.92c-2.17,2.36-4.58,4.47-7,6.58-1.2-.85-1.02-2.16-1.05-3.36-.14-5.46,.22-10.93-.22-16.38,2.49-2.32,4.99-4.64,7.48-6.96,1.14,.01,1.34,.89,1.36,1.69,.16,5.64,.15,11.28,0,16.92-.01,.55-.3,1.04-.58,1.51Z" style="fill:#ec9620;"></path><path d="M552.4,223.97c-4.44,1.33-6.06,4.87-6.78,8.93-.77,4.35-.74,8.74,.76,12.95,1.68,4.71,7.06,6.8,11.46,4.63,1.29-.64,2.06-1.5,1.94-3.03-.07-.88-.01-1.78-.01-2.67q0-3.65-3.53-4.42c-.18-.04-.4-.13-.32-.42,1.45-.38,7.57-.39,9.75,.09-2.53,.48-2.18,2.16-2.2,3.68-.02,2.46-.03,4.92-.06,7.38,0,.1-.15,.2-.23,.3-.12-.01-.33,.02-.36-.04q-1.1-2.34-3.31-.92c-5.41,3.46-13.61,1.41-16.46-4.5-2.92-6.07-2.61-12.23,1.21-17.92,1.59-2.38,3.88-4.02,6.86-4.4,.49-.12,1.06-.54,1.28,.35Z" style="fill:#242021;"></path><path d="M379.04,243.39c.11,2.48,.22,4.96,.34,7.44,.04,.75-.5,.7-.97,.68-6.16-.22-12.32-.18-18.48,0-.32,0-.7,.06-.83-.38q3.14-1.54,3.14-5.45c0-5.68,0-11.35,0-17.03q0-3.45-3.13-4.68h9.78c-.02,.14-.03,.36-.06,.36-2.46,.21-3.02,1.7-2.99,3.93,.09,6.36,0,12.72,.05,19.08,.02,2.82,.44,3.18,3.23,3.21,1.16,.01,2.33,.04,3.49,0,3.31-.13,4.65-1.29,5.32-4.53,.18-.9,.38-1.79,.57-2.68,.17,.02,.35,.04,.52,.06Z" style="fill:#252122;"></path><path d="M429.72,56.76c1.26,.24,.84,1.25,.84,1.97,.03,4.78,.03,9.56,0,14.34,0,1.17,.07,2.31,.42,3.43-2.17,2.36-4.58,4.48-7,6.58-.85-.91-.62-2.05-.64-3.12-.1-5.67,.16-11.35-.18-17.02,2.01-2.24,4.32-4.17,6.55-6.18Z" style="fill:#ec8f20;"></path><path d="M423.17,62.93c1.06,.5,.82,1.47,.82,2.33,.01,5.94,0,11.88,0,17.82-1.75,1.97-3.75,3.68-5.74,5.41-1.26-.9-1.04-2.27-1.07-3.53-.12-5.42,.18-10.85-.19-16.27,1.93-2.06,4.02-3.94,6.17-5.75Z" style="fill:#eb8721;"></path><path d="M462.66,133.97c1.76-1.96,3.7-3.72,5.76-5.35,1.04,.83,1.06,2.03,1.08,3.18,.07,4.58,.03,9.16,.03,13.74,0,.91-.24,1.75-.63,2.56-1.91,2.09-3.96,4.03-6.16,5.81-.81-.74-.71-1.74-.71-2.67-.03-4.77,0-9.54-.02-14.31,0-1.04,.16-2.03,.66-2.96Z" style="fill:#edab1e;"></path><path d="M437.99,69.92c0-5.93,0-11.85,0-17.78,0-.85,.26-1.82-.78-2.34,1.9-1.79,3.8-3.58,5.7-5.38,1.14-.04,1.39,.83,1.4,1.63,.07,6.04,.38,12.08-.14,18.11-2.06,1.92-4.11,3.84-6.17,5.76Z" style="fill:#ec9f1f;"></path><path d="M410.34,251.33c3.31-1.61,2.97-.92,3.01-5,.06-5.88,.02-11.77,.01-17.66q0-3.47-3.05-4.46c.8-.44,8.03-.6,9.81-.21-.06,.75-.7,.5-1.08,.57-1.38,.25-1.99,1.09-1.99,2.43,0,7.05,0,14.1,0,21.14,0,1.46,.68,2.29,2.16,2.49,.34,.04,.88-.09,.92,.69h-9.79Z" style="fill:#242021;"></path><path d="M345.88,223.88h9.78c-.09,.92-.74,.64-1.12,.72-1.16,.26-1.8,.85-1.84,2.09-.2,7.26-.18,14.51-.01,21.77,.05,2.09,1.78,2,2.95,2.85h-9.77c.02-.18,0-.4,.04-.42q3.08-1.02,3.08-4.44c0-5.82,0-11.65,0-17.47q0-3.68-3.13-5.1Z" style="fill:#252122;"></path><path d="M468.89,148.1c-.01-4.55-.03-9.09-.03-13.64,0-1.96,.08-3.93-.44-5.85,1.77-1.95,3.72-3.69,5.77-5.33,.79,.48,1.01,1.29,1.01,2.11,0,5.62,.37,11.24-.22,16.86-1.72,2.27-4.02,3.94-6.09,5.86Z" style="fill:#eda21f;"></path><path d="M453.66,55.19c-1.51,1.67-3.09,3.26-4.91,4.6-.87-.53-1.05-1.43-1.06-2.32-.04-5.86-.25-11.73,.11-17.59,1.8-1.94,3.73-3.74,5.81-5.39,.78,.75,.68,1.74,.69,2.67,.03,5.02,0,10.05,.02,15.07,0,1.04-.15,2.03-.66,2.95Z" style="fill:#edaa1e;"></path><path d="M417,68.69c1.26,.26,.8,1.28,.81,2,.04,4.79,.04,9.58,0,14.37,0,1.17,.1,2.31,.45,3.43-1.4,1.68-2.83,3.3-5.37,2.72-1.17-.86-1.02-2.14-1.04-3.34-.1-4.75,.17-9.5-.18-14.24,1.78-1.65,3.56-3.29,5.34-4.94Z" style="fill:#eb8022;"></path><path d="M535.49,145.95c-1.61,2.09-3.67,3.7-5.66,5.39-1.17-.16-1.07-1.14-1.09-1.88-.1-5.12-.07-10.24-.03-15.35,0-.77,.27-1.47,.64-2.13,1.62-1.83,3.47-3.39,5.35-4.93,.82,.84,.63,1.91,.65,2.92,.06,5.33-.09,10.67,.14,16Z" style="fill:#eda91e;"></path><path d="M527.07,251.67c-4.98,1.26-10.4-.7-12.77-5.1-3.3-6.12-3.18-12.37,.58-18.3,1.88-2.97,4.73-4.68,8.33-4.95,.75,.54,2.01-.58,2.51,.77-.36,.38-.83,.47-1.31,.49-3,.07-4.93,1.87-5.98,4.34-2.42,5.64-2.52,11.4-.05,17.12,1.45,3.38,4.18,4.7,7.68,4.8,.43,.16,.82,.37,1.02,.82Z" style="fill:#242021;"></path><path d="M527.07,251.67c-.33-.14-.66-.27-.99-.41,.05-.13,.09-.29,.2-.35,6.05-3.62,6.47-9.52,6.15-15.59-.16-3-.93-5.9-2.97-8.34-1.08-1.29-2.85-1.62-3.79-3.03-.69-.69-1.76,.06-2.45-.64,7.75-.5,12.85,3.74,13.63,11.42,.54,5.28-.16,10.24-4.21,14.16-1.55,1.49-3.34,2.59-5.56,2.78Z" style="fill:#242021;"></path><path d="M462.67,223.95c-3.34,.84-5.17,3.22-6.18,6.29-1.63,4.95-1.55,9.96-.15,14.95,1.07,3.81,3.72,5.74,7.61,6.1,.46,.4,1.41-.44,1.62,.63-8.67,.55-13.94-4.44-14.07-13.15-.08-5.24,1.09-9.89,5.43-13.26,1.29-1,2.72-1.83,4.44-1.9,.49-.08,1.09-.52,1.32,.35Z" style="fill:#231f20;"></path><path d="M447.8,39.88c.74,.56,.47,1.38,.47,2.1,.02,4.73,.03,9.45,0,14.18,0,1.24,.09,2.45,.48,3.63-1.39,1.6-2.95,3.02-4.58,4.37-.46-.73-.41-1.55-.41-2.37,0-5.02,0-10.05,0-15.07,0-.86,.21-1.82-.85-2.3,1.63-1.51,3.27-3.03,4.9-4.54Z" style="fill:#eda41f;"></path><path d="M551.92,65.01c1.43,1.21,2.81,2.46,3.77,4.1,.54,6.6,.21,13.21,.19,19.82,0,.88-.2,1.77-.99,2.37-1.39-1.21-2.6-2.59-3.73-4.05-.46-.86-.64-1.77-.64-2.75,0-5.57-.03-11.15,.03-16.72,.01-1.07-.25-2.42,1.37-2.77Z" style="fill:#ec8c21;"></path><path d="M540.77,53.1c1.45,1.44,3.04,2.74,4.15,4.49-.19,6.14-.02,12.28-.1,18.42-.02,1.2,.16,2.51-1.05,3.36-1.4-1.21-2.63-2.57-3.73-4.05-.46-.86-.64-1.78-.64-2.75,0-5.38-.04-10.76,.04-16.13,.02-1.23-.2-2.66,1.33-3.34Z" style="fill:#ec9c1f;"></path><path d="M535.49,145.95c-.79-.72-.78-1.67-.78-2.63,0-5.43,0-10.86,0-16.29,1.18-1.45,2.62-2.62,4.08-3.76,1.3,.69,1.06,1.95,1.08,3.07,.1,5.17-.12,10.34,.15,15.5-1.34,1.56-2.88,2.9-4.53,4.11Z" style="fill:#eda31f;"></path><path d="M487.71,130.32c-1.21,1.65-2.81,2.89-4.37,4.17-.89,.03-1.01-.7-1.02-1.26-.09-5.87-.41-11.75,.15-17.62,1.5-1.39,3-2.78,4.5-4.17,.71,.66,.87,1.57,.9,2.43,.18,5.49,.46,10.98-.16,16.46Z" style="fill:#ec9220;"></path><path d="M548.23,134.02c-1.18,1.72-2.85,2.94-4.41,4.27-.87-.54-1.05-1.43-1.06-2.32-.08-5.47-.15-10.94,.02-16.41,1.49-1.54,3-3.06,4.71-4.36,.66,.49,.92,1.21,.93,1.96,.08,5.62,.41,11.24-.19,16.86Z" style="fill:#ec9620;"></path><path d="M556.58,126.37c-1.19,1.29-2.43,2.52-3.88,3.52-.99-.07-1.24-.84-1.25-1.58-.07-5.63-.35-11.26,.13-16.88,1.35-1.56,2.93-2.86,4.51-4.18,1,.65,1.06,1.7,1.07,2.72,.07,4.62,.03,9.23,.03,13.85,0,.91-.29,1.73-.62,2.55Z" style="fill:#ec8921;"></path><path d="M540.77,53.1c-.62,1.03-.72,2.16-.71,3.34,.01,6.29,0,12.59-.01,18.88-1.54-1.39-3.05-2.8-4.24-4.52,.87-.58,.54-1.48,.55-2.25,.02-5.72,0-11.44,.03-17.16,0-.72-.47-1.72,.76-2.03,1.39,1.07,2.62,2.29,3.63,3.73Z" style="fill:#eda11f;"></path><path d="M505.17,113.94c-1.37,1.7-3.11,3.01-4.73,4.44-1.12-.27-1.26-1.22-1.28-2.09-.15-5-.1-10-.03-15,0-.63,.26-1.2,.63-1.71,1.57-1,3.27-.32,4.92-.42,.49,.46,.61,1.07,.61,1.69,0,4.36,.2,8.73-.11,13.08Z" style="fill:#eb7d22;"></path><path d="M543.77,79.38c.35-1.11,.43-2.24,.42-3.41-.03-5.51-.02-11.01,0-16.52,0-.67-.38-1.57,.72-1.85,1.33,1.05,2.54,2.23,3.51,3.63,.25,6.54,.09,13.08,.09,19.62,0,.95-.07,1.93-1.01,2.54-1.24-1.34-2.48-2.67-3.73-4.01Z" style="fill:#ec9720;"></path><path d="M554.89,91.3c.88-6.6,.18-13.23,.42-19.84,.03-.79-.3-1.65,.38-2.35,1.04,1.4,2.88,2.02,3.61,3.73,.53,1.93,.35,3.91,.35,5.87,.01,4.14,.03,8.28,0,12.42-.01,1.22,0,2.47-1.05,3.38-1.87-.34-2.55-2.04-3.71-3.21Z" style="fill:#eb8721;"></path><path d="M558.59,94.5c.9-6.42,.18-12.87,.42-19.3,.03-.79-.24-1.64,.28-2.37,1.46,1.44,3.09,2.72,4.19,4.5,.59,5.16,.2,10.33,.25,15.5,0,.62-.12,1.22-.61,1.68-1.51,0-3.02,0-4.53,0Z" style="fill:#eb8222;"></path><path d="M474.99,142.25c-.61-.63-.35-1.42-.35-2.13-.02-4.48-.03-8.95,0-13.43,0-1.17-.11-2.29-.45-3.4,1.2-1.38,2.51-2.65,4.02-3.7,1.55,.35,1.14,1.65,1.16,2.62,.09,5.31-.01,10.63,.07,15.94-1.17,1.71-2.95,2.75-4.44,4.1Z" style="fill:#ec9c1f;"></path><path d="M542.78,119.56c.8,.51,.56,1.32,.57,2.04,.02,4.36,.03,8.72,0,13.08-.01,1.24,.1,2.44,.47,3.61-1.19,1.26-2.38,2.52-3.8,3.54-1.14-.23-.76-1.15-.77-1.83-.03-4.72-.02-9.44-.01-14.16,0-.89,.04-1.78-.45-2.58,1.2-1.37,2.53-2.62,3.99-3.71Z" style="fill:#ec9c1f;"></path><path d="M496.39,122.12c-1.36,1.82-3.12,3.23-4.85,4.67-.65-.54-.67-1.31-.69-2.05-.1-5.3,.06-10.6-.1-15.89-.01-.41,.1-.81,.3-1.17,1.23-1.4,2.57-2.67,4.08-3.76,1.31,.68,1.09,1.95,1.1,3.07,.05,4.71,0,9.43,.03,14.14,0,.34-.03,.68,.12,1Z" style="fill:#eb8821;"></path><path d="M551.59,111.43c.46,.74,.42,1.56,.41,2.38,0,4.63,0,9.26,0,13.89,0,.8-.19,1.67,.7,2.2-1.26,1.63-2.83,2.91-4.47,4.12-.58-.64-.33-1.43-.33-2.15-.02-4.01-.04-8.02,0-12.03,.02-1.57-.07-3.11-.41-4.64,1.37-1.26,2.73-2.51,4.1-3.77Z" style="fill:#ec9020;"></path><path d="M479.43,138.15c-1.07-.33-.67-1.23-.67-1.91-.03-4.86,0-9.72-.03-14.58,0-.72,.26-1.54-.52-2.07,1.32-1.44,2.69-2.82,4.27-3.98,.46,.74,.38,1.56,.38,2.37,0,4.81-.01,9.62,.01,14.44,0,.71-.26,1.52,.47,2.08-1.05,1.49-2.61,2.43-3.9,3.66Z" style="fill:#ec9720;"></path><path d="M491.06,107.67c.62,1.64,.43,3.35,.43,5.04,.02,4.69,.03,9.39,.05,14.08-.98,1.51-2.72,2.18-3.84,3.53-.38-.38-.31-.87-.33-1.35-.14-5.85,.35-11.71-.41-17.54,1.22-1.41,2.64-2.6,4.09-3.76Z" style="fill:#ec8d21;"></path><path d="M496.39,122.12c-1.12-.24-.76-1.14-.76-1.82-.03-4.61-.02-9.23,0-13.84,0-.89,0-1.77-.48-2.56,1.43-1.55,2.95-3.02,4.61-4.32,0,5.44,0,10.88-.03,16.32,0,.91,.07,1.77,.71,2.47-1.07,1.55-2.71,2.47-4.04,3.73Z" style="fill:#eb8322;"></path><path d="M547.5,83.38c.3-.98,.41-1.97,.4-3-.03-5.64-.02-11.27,0-16.91,0-.77-.31-1.66,.52-2.26,1.12,1.3,2.64,2.24,3.49,3.78-.99,.57-.73,1.53-.73,2.39-.02,6.62-.02,13.24-.03,19.86-1.37-1.15-2.58-2.45-3.66-3.87Z" style="fill:#ec9220;"></path><path d="M411.66,73.62c1.13,.2,.8,1.11,.8,1.78,.02,4.27,.03,8.54,0,12.81,0,1.03,.1,2.02,.42,2.99-1.65,.02-3.29,.05-4.94,.07-.12-.16-.32-.3-.34-.5-.41-4.53-.86-9.07,.3-13.56,1.25-1.2,2.5-2.39,3.75-3.59Z" style="fill:#eb7b22;"></path><path d="M447.45,164.87c-.96-.68-1.72-1.55-2.4-2.5-.49-2.02-.3-4.07-.31-6.11-.02-5.19-.04-10.37,.03-15.56,.01-.97-.37-2.27,1.17-2.62,.79,.82,1.58,1.64,2.37,2.46,.46,.86,.65,1.78,.64,2.76,0,6.14,.04,12.27-.04,18.41-.01,1.19,.31,2.71-1.47,3.16Z" style="fill:#aa8433;"></path><path d="M434.27,126.3c1.09,.82,2.04,1.8,2.88,2.87,.67,.87,.69,1.89,.69,2.91,0,6.05,.02,12.1-.02,18.14,0,1.18,.23,2.51-1.12,3.26-.94-1-1.89-2.01-2.83-3.01-.33-1.2-.25-2.44-.25-3.66,0-5.87-.01-11.74,.01-17.6,0-1-.15-2.07,.64-2.92Z" style="fill:#7c6941;"></path><path d="M556.58,126.37c-.02-5.24-.05-10.47-.04-15.71,0-1.17-.11-2.3-.45-3.41,1.16-1.84,2.97-1.01,4.55-1.09,.23,.26,.37,.58,.35,.93-.28,5-.11,10.01-.03,15.01-1.15,1.75-2.88,2.9-4.39,4.27Z" style="fill:#eb8322;"></path><path d="M429.69,145.99c-.98-.66-1.69-1.58-2.43-2.48-.44-2.38-.19-4.78-.21-7.17-.04-4.59-.03-9.18,0-13.77,0-1.01-.16-2.08,.65-2.92,1.09,.83,2.05,1.79,2.88,2.88,.48,.77,.67,1.62,.67,2.52,0,6.18,.06,12.37-.05,18.55-.02,.94,.45,2.53-1.51,2.38Z" style="fill:#615949;"></path><path d="M560.97,122.1c-.24-.7-.71-1.4-.69-2.09,.1-4.62-.47-9.26,.37-13.85,4.69,.03,9.39-.14,14.07,.3-1.62,1.19-3.47,.52-5.22,.64-4.28,.12-4.1-.73-4.14,4.19-.02,2.23,.23,4.46,.11,6.69-1.22,1.68-2.94,2.8-4.49,4.12Z" style="fill:#eb7c22;"></path><path d="M505.17,113.94c-.76-.55-.48-1.37-.49-2.08-.02-4.23-.01-8.46-.01-12.69,1.78,0,3.57,0,5.35,0,.74,.78,.59,1.76,.62,2.7,.06,2.24-.13,4.48,.26,6.7-1.77,1.94-3.7,3.71-5.74,5.36Z" style="fill:#eb7822;"></path><path d="M412.48,127.87c.66-.61,.39-1.41,.39-2.13,.02-6.09,0-12.18,.03-18.26,0-.77-.32-1.67,.53-2.27,.93,.67,1.71,1.48,2.39,2.39,.36,.89,.63,1.78,.63,2.76,0,5.85,.05,11.71-.05,17.56-.02,.94,.48,2.5-1.45,2.42-.82-.82-1.64-1.65-2.46-2.47Z" style="fill:#26365b;"></path><path d="M407.9,77.21c.01,4.69,.03,9.38,.04,14.07-1.92,.12-3.83,.23-5.75,.35-.36-2.85-.13-5.73-.49-8.58,1.89-2.14,4.01-4.01,6.2-5.83Z" style="fill:#eb7623;"></path><path d="M563.12,94.51c0-5.02-.01-10.03,.01-15.05,0-.72-.25-1.5,.35-2.13,1.31,1.27,2.86,2.33,3.8,3.95,.85,1.66,.6,3.46,.62,5.22,.02,1.97,.03,3.95-.02,5.92-.02,.75-.05,1.51-.65,2.09-1.37,0-2.74,0-4.12,0Z" style="fill:#eb7b22;"></path><path d="M439.79,131.91c.65,.66,1.3,1.32,1.96,1.98,.41,.95,.63,1.93,.63,2.99-.01,6.23,.02,12.46-.03,18.7,0,.99,.34,2.26-1.1,2.73-.91-.73-1.72-1.54-2.37-2.51-.22-.72-.32-1.46-.32-2.22,0-6.36-.03-12.72,.04-19.07,.01-.96-.37-2.27,1.2-2.59Z" style="fill:#8f743b;"></path><path d="M495.1,163.58c.9-1.05,1.89-2.01,3.03-2.8,1.11,.26,.98,1.22,1,1.97,.09,5.17,.05,10.35,.03,15.52,0,.84-.33,1.59-.61,2.36-.9,.99-1.8,1.99-2.93,2.74-.56-.51-.63-1.2-.63-1.87,.01-5.97-.2-11.94,.11-17.91Z" style="fill:#484a51;"></path><path d="M419.12,134.83c-.59-.63-1.17-1.26-1.76-1.88-.46-1.01-.64-2.07-.64-3.19,.02-5.88,0-11.76,.02-17.65,0-1-.15-2.08,.72-2.88,1.04,.67,1.67,1.72,2.41,2.66,.58,.82,.66,1.76,.66,2.73,0,5.58,.04,11.16-.03,16.74-.02,1.27,.26,2.8-1.39,3.48Z" style="fill:#363f56;"></path><path d="M516.58,55.88c-.72,.81-1.39,1.68-2.45,2.09-.73-.53-.95-1.34-.97-2.16-.15-5.44-.16-10.87,0-16.31,0-.26,.15-.52,.21-.79,.9-.85,1.8-1.7,2.7-2.56,1.21,.09,1.13,1.08,1.14,1.82,.11,5.33,.08,10.66,.03,15.99,0,.7-.25,1.34-.66,1.91Z" style="fill:#a17f36;"></path><path d="M510.9,108.58c-1.11-.16-.87-1.02-.88-1.72-.02-2.56,0-5.12,0-7.68h11.06c-3.63,3.36-6.91,6.38-10.18,9.4Z" style="fill:#ea6f23;"></path><path d="M510.43,61.6c-.79,.74-1.39,1.71-2.48,2.11-1.01-.46-1.02-1.4-1.03-2.28-.07-5-.04-10-.02-14.99,0-.77,.18-1.49,.6-2.14,.54-.8,1.23-1.43,2.05-1.94,1.14-.06,1.41,.8,1.44,1.61,.18,5.45,.19,10.89,0,16.34-.02,.48-.29,.9-.56,1.3Z" style="fill:#836d3e;"></path><path d="M465.56,251.92c-.54-.21-1.08-.42-1.62-.63,.68-.04,1.38-.04,2.05-.14,2.89-.44,3.89-1.6,3.89-4.47,0-.14,0-.27,0-.41-.05-2.83,.9-6.27-3.82-6.47h10.06c-2.96,.92-2.49,2.87-2.51,4.6-.02,2.35,0,4.7,0,7.59-1.84-2.75-1.83-2.73-4.4-1.28-1.13,.64-2.3,1.22-3.65,1.19Z" style="fill:#272324;"></path><path d="M462.69,25.94c.72-.82,1.43-1.66,2.42-2.19,.61,.48,.68,1.18,.68,1.86,.07,5.74,.05,11.48,0,17.22,0,.41-.18,.8-.22,1.21-.84,.99-1.71,1.93-2.84,2.61-.7-.61-.7-1.45-.7-2.26-.04-5.3-.02-10.61-.02-15.91,0-.91,.19-1.75,.67-2.53Z" style="fill:#9b7b37;"></path><path d="M439.79,131.91c-.87,.58-.55,1.48-.55,2.25-.02,6.49,0,12.98-.03,19.47,0,.72,.26,1.51-.34,2.16-.73-.77-1.45-1.54-2.18-2.3,.42-.74,.48-1.54,.48-2.38-.02-7.31-.02-14.63-.03-21.94,1.02,.78,1.97,1.63,2.64,2.74Z" style="fill:#876f3e;"></path><path d="M447.45,164.87c.93-.75,.84-1.79,.84-2.82,0-7.17,.02-14.34,.02-21.5,.81,.56,1.49,1.25,2.06,2.06,.48,1,.6,2.07,.6,3.17-.01,5.71,0,11.42,0,17.13,0,.96,0,1.91-.64,2.72-1.63,2.34-2.02-.08-2.87-.75Z" style="fill:#b38930;"></path><path d="M475.45,14.02c.72-.83,1.44-1.66,2.41-2.22,.67,.54,.69,1.31,.7,2.06,.06,5.54,.03,11.08,.02,16.62,0,.56-.17,1.08-.31,1.6-.75,1.06-1.8,1.8-2.78,2.62-.7-.61-.69-1.45-.7-2.26-.04-5.3-.02-10.6-.02-15.9,0-.91,.19-1.75,.67-2.52Z" style="fill:#394156;"></path><path d="M445.94,138.09c-.85,.6-.52,1.49-.53,2.27-.02,6.62,0,13.24-.03,19.87,0,.72,.26,1.51-.34,2.15-.59-.63-1.17-1.26-1.76-1.89-.5-1.08-.64-2.21-.64-3.39,.02-6.15,0-12.31,.02-18.46,0-1.07-.19-2.22,.72-3.09,.85,.85,1.7,1.7,2.55,2.55Z" style="fill:#9f7d36;"></path><path d="M434.27,126.3c0,7.42,.02,14.85,0,22.27,0,.65,.22,1.38-.41,1.91-.66-.69-1.33-1.39-1.99-2.08-.49-2.02-.3-4.08-.31-6.13-.02-5.06-.02-10.12,0-15.18,0-1.01-.16-2.08,.65-2.91l2.04,2.13Z" style="fill:#726344;"></path><path d="M419.12,134.83c.71-1,.77-2.13,.77-3.3-.01-6.55,0-13.09,0-19.64,1.09,.51,1.76,1.47,2.5,2.35,.26,.5,.32,1.03,.3,1.58-.17,6.25,0,12.51-.1,18.76-.02,.99,.35,2.24-1.05,2.74-.98-.66-1.71-1.57-2.4-2.5Z" style="fill:#414653;"></path><path d="M401.71,83.04c1.36,2.79,1.1,5.68,.49,8.58-3.23,.15-6.46,.29-9.69,.44-.07-.15-.15-.31-.22-.46,3.14-2.85,6.28-5.7,9.42-8.56Z" style="fill:#ea6e24;"></path><path d="M460.24,156.3c-.76,.86-1.5,1.74-2.51,2.33-.74-.77-.64-1.76-.65-2.7-.02-4.83,0-9.66-.01-14.48,0-1.04,.15-2.03,.65-2.95,.61-.76,1.27-1.47,2.12-1.97,1.11,.25,.98,1.21,.99,1.96,.08,5.23,.06,10.45,.02,15.68,0,.77-.3,1.45-.62,2.13Z" style="fill:#dba124;"></path><path d="M427.7,119.65c0,7.25,0,14.5-.01,21.74,0,.72,.27,1.53-.43,2.11-.65-.7-1.3-1.4-1.96-2.1-.52-2.16-.29-4.36-.31-6.54-.03-4.65-.04-9.31,.01-13.96,.01-1.06-.17-2.25,1.05-2.9,.68,.42,1.22,.97,1.65,1.64Z" style="fill:#58544c;"></path><path d="M460.24,156.3c0-5.88,0-11.75-.04-17.63,0-.72,.27-1.52-.36-2.15,.78-1.03,1.78-1.81,2.81-2.56,.03,6.65,.05,13.3,.08,19.94-.83,.8-1.66,1.59-2.49,2.39Z" style="fill:#e4a721;"></path><path d="M457.72,138.49c0,6.71,0,13.42,0,20.13-.48,.8-1.2,1.36-1.98,1.85-.83-.34-1.04-1.08-1.05-1.84-.12-5.6-.16-11.19,.02-16.79,0-.26,.15-.52,.21-.79,.93-.85,1.86-1.71,2.79-2.56Z" style="fill:#d19b27;"></path><path d="M506.65,152.91c.71-.67,1.43-1.34,2.14-2.02,1.2,.13,1.35,1.11,1.38,1.96,.19,5.19,.12,10.39,.05,15.58,0,.63-.28,1.19-.61,1.72-.76,.89-1.39,1.9-2.48,2.45-.49-.46-.6-1.07-.6-1.69,0-6-.24-12.01,.13-18Z" style="fill:#7e6a40;"></path><path d="M514.97,145.14c.8-.7,1.6-1.39,2.4-2.09,1.16,.15,1.07,1.13,1.09,1.87,.1,5.16,.07,10.32,.03,15.48,0,.77-.35,1.44-.6,2.15-.8,.79-1.43,1.77-2.52,2.24-.56-.51-.62-1.2-.63-1.88-.06-5.45-.03-10.9-.02-16.35,0-.48,.19-.93,.24-1.41Z" style="fill:#a78334;"></path><path d="M426.05,118.01c-.51,.8-.41,1.7-.41,2.59,0,6.22,0,12.43-.01,18.65,0,.72,.25,1.51-.33,2.16-.8-.74-1.63-1.45-2.19-2.41-.37-6.77-.14-13.55-.12-20.32,0-1,.3-1.91,1.41-2.27,.84,.24,1.22,.95,1.65,1.6Z" style="fill:#504f4e;"></path><path d="M519.94,32.53c1.7-1.65,1.68,.66,2.48,1.08,.19,.58,.54,1.13,.55,1.75,.12,6.12,.14,12.25-.01,18.37-.02,.86-.19,1.84-1.45,1.83-.67-.43-1.17-1-1.55-1.69-.24-.72-.3-1.45-.3-2.21,0-5.64,0-11.27,0-16.91,0-.75,.07-1.49,.28-2.21Z" style="fill:#be902d;"></path><path d="M525.72,60.03c-.78-.44-1.27-1.16-1.75-1.88-.42-.95-.63-1.93-.63-2.98,.02-5.05-.04-10.11,.03-15.16,.02-1.48-.03-3.03,1.08-4.26,.54,.57,1.08,1.14,1.63,1.71,.59,.9,.67,1.91,.67,2.95,0,5.61,.03,11.21-.03,16.82,0,1,.35,2.24-1,2.81Z" style="fill:#d29d26;"></path><path d="M567.23,94.51c.02-4.41,.03-8.82,.05-13.23,1.61,1.43,3.13,2.94,4.39,4.69,.27,2.88,.88,5.77-.33,8.59-1.37-.02-2.74-.03-4.12-.05Z" style="fill:#eb7623;"></path><path d="M565.47,117.98c-1.42-3.49-.44-7.13-.65-10.7-.04-.72,.64-.78,1.2-.77,1.09,0,2.18,.03,3.28,.04,1.22,2.39,.42,4.94,.54,7.41-1.35,1.46-2.75,2.85-4.37,4.02Z" style="fill:#eb7724;"></path><path d="M455.28,32.93c.51-.86,1.33-1.41,2.06-2.04,.71,.71,.63,1.63,.64,2.51,.08,5.87-.13,11.75,.17,17.62-.81,1.01-1.75,1.88-2.82,2.61-.7-.61-.7-1.45-.7-2.26-.04-5.3-.02-10.61-.02-15.91,0-.91,.19-1.75,.67-2.53Z" style="fill:#d39d26;"></path><path d="M507.5,44.29c.02,5.68,.03,11.35,.05,17.03,0,.82-.08,1.65,.4,2.39-.7,.94-1.42,1.86-2.48,2.44-.79-.85-.61-1.91-.62-2.91-.1-5.45,.17-10.89-.19-16.34,.85-.98,1.71-1.94,2.84-2.61Z" style="fill:#776643;"></path><path d="M475.45,14.02c.01,6.9,.03,13.79,.04,20.69-.54,.51-1.09,1.03-1.63,1.54-1.17-.17-1.05-1.13-1.06-1.89-.04-5.4-.02-10.79-.02-16.19,0-.78,.27-1.47,.59-2.15,.54-.82,1.28-1.44,2.08-1.99Z" style="fill:#4b4b50;"></path><path d="M468.91,40.89c-.55,.51-1.09,1.02-1.64,1.53-1.17-.16-1.08-1.14-1.09-1.89-.1-5.4-.07-10.8-.03-16.2,0-.78,.3-1.47,.63-2.15,.54-.82,1.28-1.45,2.08-1.99,.76,.76,.66,1.75,.67,2.68,.03,5.02,0,10.04,.02,15.06,0,1.04-.23,2.01-.63,2.96Z" style="fill:#7d6941;"></path><path d="M458.15,51.01c-.9-.76-.82-1.79-.82-2.81,0-5.77,0-11.54,0-17.32,.67-.6,1.34-1.2,2.01-1.8,.54,.43,.66,1.04,.66,1.66,0,6.22,.28,12.44-.15,18.65-.57,.54-1.14,1.08-1.71,1.62Z" style="fill:#c2932c;"></path><path d="M454.93,141.05c.59,.64,.33,1.43,.34,2.15,.02,4.9,.02,9.8,0,14.71,0,.89,0,1.77,.48,2.57-.84,.8-1.67,1.6-2.51,2.41-.46-.38-.62-.92-.62-1.46,0-6.12-.32-12.24,.16-18.35,.57-.83,1.32-1.46,2.14-2.02Z" style="fill:#c8962a;"></path><path d="M509.61,170.15c0-5.54,0-11.09,0-16.63,0-.97,.02-1.93-.82-2.63l2.85-2.56c.79,.75,.69,1.74,.7,2.68,.03,4.77,0,9.54,.02,14.31,0,1.05-.2,2.03-.63,2.97-.61,.73-1.2,1.48-2.11,1.86Z" style="fill:#8a713c;"></path><path d="M516.58,55.88c0-5.95,.02-11.9,.02-17.86,0-.66,.19-1.4-.52-1.87,.67-.72,1.27-1.51,2.16-2,1.14,.21,1.03,1.17,1.04,1.92,.09,5.24,.06,10.49,.03,15.73,0,.78-.28,1.46-.64,2.13-.6,.76-1.25,1.46-2.1,1.94Z" style="fill:#ad8632;"></path><path d="M571.35,94.56c.18-2.86-.38-5.75,.33-8.59,2.78,2.84,5.56,5.68,8.79,8.99-3.48-.15-6.3-.28-9.12-.4Z" style="fill:#ea7125;"></path><path d="M500.13,71.11c-.52,.77-1.22,1.33-1.99,1.83-.48-.36-.64-.91-.64-1.45-.03-6.01-.31-12.02,.15-18.02,.72-.67,1.45-1.33,2.17-2,1.1,.28,.95,1.24,.96,1.99,.08,5.18,.06,10.36,.02,15.54,0,.77-.22,1.48-.66,2.11Z" style="fill:#53514d;"></path><path d="M517.89,162.54c-.02-5.8-.03-11.6-.06-17.4,0-.72,.27-1.52-.46-2.1,.56-.83,1.31-1.46,2.13-2.01,1.13,.23,1.01,1.2,1.02,1.95,.09,5.19,.06,10.39,.02,15.59,0,.77-.21,1.49-.67,2.12-.49,.8-1.28,1.28-1.98,1.85Z" style="fill:#b48a30;"></path><path d="M511.72,168.29c-.03-6.65-.05-13.31-.08-19.96,.44-.65,.98-1.18,1.67-1.55,1.14,.22,1.02,1.19,1.04,1.94,.09,5.2,.06,10.4,.03,15.6,0,.77-.21,1.49-.67,2.12-.48,.81-1.23,1.33-1.98,1.85Z" style="fill:#957839;"></path><path d="M500.09,158.96c.55-.51,1.1-1.02,1.64-1.53,1.17,.16,1.07,1.14,1.08,1.89,.1,5.25,.06,10.5,.03,15.75,0,.77-.26,1.47-.65,2.13-.42,.66-.93,1.21-1.67,1.52-1.03-.44-1.01-1.4-1.02-2.26-.07-5.04-.04-10.09-.03-15.13,0-.85,.31-1.6,.61-2.36Z" style="fill:#5d564a;"></path><path d="M529.36,131.97c0,5.76,0,11.52,.02,17.29,0,.71-.26,1.52,.46,2.08-.7,.95-1.57,1.73-2.53,2.42-.76-.77-.66-1.77-.66-2.71-.03-4.72,0-9.44-.02-14.16,0-1.05,.19-2.04,.63-2.98,.62-.74,1.26-1.44,2.1-1.93Z" style="fill:#e0a522;"></path><path d="M495.1,163.58c.82,.61,.5,1.49,.5,2.26,.03,5.84,.01,11.68,.02,17.52-.4,.66-.95,1.17-1.65,1.51-.64-.51-.87-1.26-.9-2-.2-5.86-.38-11.73,.09-17.59,.65-.57,1.3-1.13,1.95-1.7Z" style="fill:#3b4255;"></path><path d="M506.65,152.91c.69,.49,.48,1.23,.48,1.88,0,5.94,0,11.87,0,17.81-.36,.61-.85,1.07-1.5,1.37-1.21-.08-1.12-1.05-1.13-1.81-.05-5.33-.03-10.66-.02-15.99,0-.64,.24-1.2,.56-1.73,.4-.67,.98-1.13,1.62-1.53Z" style="fill:#746443;"></path><path d="M497.64,53.46c.7,.58,.43,1.39,.43,2.1,.04,5.79,.05,11.58,.06,17.37-.59,.77-1.28,1.43-2.09,1.96-.51-.44-.62-1.05-.61-1.67,.05-5.91-.18-11.82,.12-17.73,.7-.68,1.39-1.36,2.09-2.04Z" style="fill:#4a4b50;"></path><path d="M443.39,135.54c-.03,8.32-.07,16.63-.1,24.95-.68-.73-1.37-1.45-2.05-2.18,.75-.65,.43-1.53,.44-2.31,.04-7.37,.05-14.74,.07-22.1,.55,.55,1.1,1.09,1.64,1.64Z" style="fill:#987938;"></path><path d="M523.63,157.13c-.58,.76-1.17,1.5-2.09,1.89-.72-.7-.65-1.62-.66-2.5-.03-4.91-.02-9.83,0-14.74,0-.9,.09-1.77,.62-2.54,.41-.66,1-1.12,1.64-1.54,1.17,.16,1.07,1.14,1.09,1.89,.1,5.13,.07,10.26,.03,15.39,0,.78-.31,1.46-.62,2.15Z" style="fill:#c5942b;"></path><path d="M432.23,124.17c0,7.36,0,14.72-.01,22.08,0,.72,.26,1.51-.34,2.15-.78-.76-1.65-1.44-2.19-2.41,1.25-.22,.87-1.22,.88-1.96,.02-7.17,.01-14.33,.01-21.5,.68,.42,1.22,.97,1.65,1.64Z" style="fill:#6c5f46;"></path><path d="M504.67,46.9c.96,.44,.83,1.3,.83,2.11,0,5.71-.01,11.43-.02,17.14-.5,.79-1.26,1.31-1.99,1.86-.54-.42-.66-1.04-.66-1.66-.01-5.95-.25-11.9,.13-17.84,.57-.54,1.14-1.07,1.72-1.61Z" style="fill:#6d6046;"></path><path d="M523.63,157.13c0-5.78-.01-11.56-.04-17.34,0-.71,.27-1.52-.46-2.09,.44-.67,1.04-1.18,1.71-1.61,1.15,0,1.36,.87,1.38,1.68,.17,5.34,.14,10.68,.03,16.02-.01,.56-.29,1.05-.59,1.51-.68,.61-1.35,1.21-2.03,1.82Z" style="fill:#cf9a28;"></path><path d="M424.4,116.41c-.68,.76-.84,1.64-.83,2.64,.04,5.95,.03,11.9,0,17.85,0,.72,.27,1.53-.46,2.1-.67-.43-1.23-.95-1.59-1.67,.67-.6,.4-1.4,.4-2.12,.02-5.85,.03-11.71,0-17.56,0-1.17,.1-2.3,.45-3.41,.89,.52,1.45,1.35,2.02,2.17Z" style="fill:#4a4b50;"></path><path d="M417.46,109.23c-.03,7.91-.07,15.81-.1,23.72-.89-.8-1.79-1.58-2.42-2.61,1.26-.26,.8-1.28,.81-2,.05-6.92,.05-13.83,.07-20.75,.67,.42,1.21,.98,1.65,1.64Z" style="fill:#303c58;"></path><path d="M524.45,35.74c-.91,7.45-.17,14.94-.48,22.41-.82-.86-1.64-1.73-2.46-2.59,1.07-.48,.86-1.44,.86-2.3,.02-6.55,.04-13.09,.05-19.64,.83,.56,1.44,1.34,2.03,2.13Z" style="fill:#c89629;"></path><path d="M525.72,60.03c.6-.64,.34-1.43,.34-2.15,.02-6.81,.01-13.62,.01-20.43,.54,.57,1.08,1.14,1.63,1.71,.54,1.06,.7,2.18,.7,3.36-.01,5.59,0,11.17-.02,16.76,0,1,.15,2.07-.68,2.89-.75-.63-1.51-1.26-1.98-2.15Z" style="fill:#daa124;"></path><path d="M527.7,62.17c0-7.67,0-15.34,0-23.01,.85,.93,1.7,1.85,2.55,2.78-1.07,.47-.88,1.43-.88,2.29-.02,6.55-.04,13.11-.05,19.66-.54-.57-1.08-1.15-1.62-1.72Z" style="fill:#e3a721;"></path><path d="M569.83,113.96c-1.11-1.21-.38-2.67-.52-4.01-.12-1.12-.02-2.27-.02-3.4,1.81-.03,3.61-.06,5.42-.09,.94,0,1.89,0,3.33,0-2.95,2.69-5.58,5.1-8.21,7.5Z" style="fill:#ea7026;"></path><path d="M468.91,40.89c-.02-6.9-.03-13.8-.05-20.7,.42-.67,1.02-1.14,1.66-1.57,.6,.58,.61,1.35,.62,2.09,.04,5.52,.02,11.04,.02,16.56,0,.62-.14,1.21-.31,1.8-.65,.61-1.3,1.21-1.95,1.82Z" style="fill:#6e6146;"></path><path d="M493.15,165.28c.66,.61,.39,1.4,.39,2.12,.03,3.87,.05,7.75,0,11.62-.03,1.97,.11,3.92,.42,5.86-.67,.64-1.33,1.28-2,1.92-.6-.48-.67-1.18-.68-1.86-.07-5.6-.05-11.21-.01-16.81,0-.41,.18-.8,.22-1.21,.42-.68,1-1.2,1.66-1.64Z" style="fill:#333d57;"></path><path d="M518.68,53.93c0-5.88,0-11.77-.03-17.65,0-.72,.27-1.52-.41-2.13,.45-.66,.96-1.26,1.69-1.62,.42,.36,.37,.85,.37,1.33,0,6.22,0,12.45,0,18.67,0,.47,.06,.97-.35,1.34-.45-.34-.87-.19-1.28,.07Z" style="fill:#b78c2f;"></path><path d="M470.86,39.07c-.52-.5-.34-1.14-.34-1.73,0-6.24,0-12.48,.01-18.72,.53-.48,1.05-.96,1.58-1.45,.6,.48,.65,1.17,.66,1.86,.03,5.74,0,11.48,.02,17.22,0,.41-.16,.8-.2,1.21-.42,.7-1.07,1.15-1.71,1.62Z" style="fill:#625949;"></path><path d="M455.28,32.93c.02,6.9,.03,13.8,.05,20.7-.41,.68-1.02,1.14-1.67,1.56-.02-6.9-.03-13.79-.05-20.69,.43-.65,.95-1.21,1.67-1.57Z" style="fill:#e1a522;"></path><path d="M466.78,22.18c0,6.05,0,12.1,.04,18.15,0,.71-.26,1.52,.46,2.09-.57,.54-1.13,1.08-1.7,1.61-.67-.6-.4-1.4-.4-2.12-.04-6.06-.05-12.11-.07-18.17,.44-.65,.97-1.21,1.68-1.57Z" style="fill:#8a713c;"></path><path d="M478.26,32.08c-.59-.64-.33-1.42-.34-2.14-.04-6.05-.05-12.09-.07-18.14,.47-.61,.95-1.22,1.68-1.56,.01,6.01,.01,12.02,.04,18.03,0,.73-.24,1.51,.31,2.17-.26,.83-.98,1.19-1.62,1.64Z" style="fill:#28375b;"></path><path d="M459.86,49.4c-.72-.57-.45-1.38-.45-2.1-.04-6.07-.04-12.14-.06-18.21,.56-.52,1.12-1.05,1.67-1.57,.58,.5,.65,1.19,.65,1.87,0,6.13,.19,12.27-.1,18.4-.57,.54-1.14,1.07-1.71,1.61Z" style="fill:#b68c2f;"></path><path d="M513.38,38.71c.56,.57,.34,1.29,.34,1.94,.02,4.09,.02,8.17,0,12.26,0,1.7-.03,3.39,.42,5.05-.56,.82-1.17,1.6-2.06,2.1-.45-.39-.6-.93-.6-1.48,0-6.09-.3-12.18,.15-18.26,.45-.67,1.06-1.18,1.74-1.6Z" style="fill:#977939;"></path><path d="M511.64,40.31c.71,.59,.43,1.4,.43,2.11,.02,5.88,.01,11.76,.01,17.63-.43,.64-1,1.14-1.65,1.54,0-5.65,0-11.31,0-16.96,0-.87,.19-1.82-.88-2.29,.55-.83,1.29-1.46,2.09-2.04Z" style="fill:#8f743b;"></path><path d="M461.57,47.79c-.83-.6-.51-1.49-.52-2.27-.03-6-.03-12-.04-18,.56-.53,1.11-1.05,1.67-1.58,.02,6.9,.03,13.8,.05,20.7-.39,.38-.77,.77-1.16,1.15Z" style="fill:#a98433;"></path><path d="M525.66,155.31c0-5.63,0-11.26,0-16.9,0-.85,.24-1.82-.81-2.32,.66-.89,1.51-1.57,2.41-2.2,.02,6.62,.03,13.23,.05,19.85-.55,.52-1.1,1.04-1.64,1.56Z" style="fill:#d7a026;"></path><path d="M500.09,158.96c.02,5.79,.03,11.59,.05,17.38,0,.81-.14,1.65,.38,2.37-.61,.69-1.14,1.46-1.98,1.91-.02-5.9-.03-11.81-.07-17.71,0-.72,.26-1.51-.36-2.13,.49-.78,1.23-1.3,1.97-1.81Z" style="fill:#55514d;"></path><path d="M502.2,177.2c0-5.89,0-11.77-.01-17.66,0-.72,.27-1.53-.45-2.11,.5-.62,1.01-1.23,1.74-1.59,1.11,.26,.96,1.2,.96,1.96,.04,5.23,.02,10.45,.02,15.68,0,.78-.27,1.46-.59,2.14-.41,.68-.99,1.19-1.67,1.58Z" style="fill:#655b48;"></path><path d="M521.5,139.24c.02,6.59,.03,13.19,.05,19.78-.55,.56-.87,1.35-1.67,1.67,0-5.98,.02-11.96,.02-17.94,0-.59,.17-1.24-.39-1.71,.62-.64,1.03-1.53,1.99-1.79Z" style="fill:#bb8f2e;"></path><path d="M452.79,143.07c.69,.59,.42,1.39,.42,2.1,.03,5.9,.03,11.81,.03,17.71-.56,.53-1.11,1.05-1.67,1.58-.68-.64-.61-1.48-.61-2.29,0-5.32,0-10.63,0-15.95,0-.81-.08-1.66,.61-2.29,.4-.28,.81-.57,1.21-.85Z" style="fill:#bf912c;"></path><path d="M513.7,166.44c0-5.99,.02-11.97,.02-17.96,0-.59,.17-1.24-.41-1.71,.55-.55,1.1-1.09,1.66-1.64,.66,.61,.39,1.4,.39,2.12,.02,5.84,.01,11.68,0,17.52-.58,.53-.81,1.41-1.67,1.67Z" style="fill:#9d7d37;"></path><path d="M500.13,71.11c0-5.97,.01-11.94,0-17.91,0-.59,.18-1.23-.33-1.74l1.94-1.8c.8,.74,.69,1.74,.7,2.67,.03,4.76,0,9.52,.02,14.28,0,1.04-.15,2.03-.66,2.95-.48,.6-.97,1.2-1.68,1.55Z" style="fill:#5c564a;"></path><path d="M491.49,166.92c.67,.6,.4,1.4,.4,2.12,.04,5.92,.05,11.84,.06,17.76-.42,.39-.84,.77-1.26,1.16-.79-.49-1.01-1.29-1.01-2.11,0-5.77-.17-11.55,.08-17.32,.46-.66,1.01-1.22,1.73-1.6Z" style="fill:#2c3959;"></path><path d="M488.6,81.77c0-5.8,.02-11.6,.01-17.39,0-.65,.21-1.39-.47-1.89,.41-.71,1.04-1.17,1.71-1.61,1.14,.22,1,1.16,1.01,1.93,.04,5.1,.02,10.19,.02,15.29,0,.78-.24,1.46-.61,2.13-.44,.65-.96,1.21-1.68,1.56Z" style="fill:#24355c;"></path><path d="M494.79,75.99c-.63,.46-.83,1.35-1.65,1.61-.71-.7-.65-1.62-.65-2.49-.03-4.91-.02-9.81,0-14.72,0-.9,.09-1.77,.62-2.54,.44-.65,.94-1.24,1.67-1.58,.58,.5,.63,1.18,.63,1.87,.02,5.24,0,10.48,0,15.73,0,.78-.18,1.48-.62,2.12Z" style="fill:#3a4255;"></path><path d="M493.09,57.86c.02,6.58,.03,13.17,.05,19.75-.37,.34-.73,.67-1.1,1.01-.9,.1-1.06-.63-1.06-1.18-.04-5.92-.36-11.85,.16-17.77,.53-.74,1.14-1.39,1.96-1.81Z" style="fill:#343e57;"></path><path d="M501.81,69.56c-.02-6.63-.04-13.26-.06-19.89,.4-.39,.8-.77,1.2-1.16,.75,.56,.47,1.37,.47,2.09,.04,5.8,.04,11.61,.06,17.41-.56,.52-1.12,1.04-1.68,1.56Z" style="fill:#655b48;"></path><path d="M451.57,143.92c0,6.85,0,13.69,0,20.54-.28,.54-.73,.89-1.26,1.16,.02-7.67,.03-15.34,.05-23.02,.69,.18,.7,.97,1.21,1.31Z" style="fill:#b98d2e;"></path><path d="M489.76,168.52c.76,.55,.49,1.37,.49,2.08,.02,4.64,.03,9.29,0,13.93,0,1.17,.1,2.31,.45,3.42-.4,.69-1.01,1.16-1.67,1.58,0-5.71,0-11.42,0-17.12,0-.96,.03-1.91-.48-2.77,.31-.47,.66-.9,1.21-1.12Z" style="fill:#24345c;"></path><path d="M472.57,37.45c-.67-.6-.4-1.4-.4-2.12-.04-6.06-.05-12.11-.07-18.17,.29-.52,.73-.89,1.26-1.15,0,6.05,0,12.1,.04,18.14,0,.71-.27,1.52,.45,2.09-.43,.4-.86,.8-1.28,1.21Z" style="fill:#57534c;"></path><path d="M503.87,175.62c0-5.88,0-11.75-.04-17.63,0-.72,.26-1.52-.36-2.15,.44-.55,.74-1.27,1.55-1.4,.02,5.75,.02,11.5,.06,17.25,0,.78-.32,1.67,.53,2.27-.44,.7-1.04,1.24-1.75,1.65Z" style="fill:#6c6046;"></path><path d="M491.13,59.66c.62,.63,.35,1.43,.35,2.15,.02,4.91,0,9.83,.02,14.74,0,.71-.26,1.53,.53,2.06-.53,.6-1.02,1.24-1.77,1.6,0-5.74,0-11.48-.02-17.22,0-.72,.27-1.52-.4-2.13,.29-.55,.71-.96,1.28-1.21Z" style="fill:#2c3959;"></path><path d="M494.79,75.99c0-6.57-.01-13.14-.02-19.71,.26-.26,.52-.52,.78-.78,.74,.56,.46,1.37,.47,2.08,.03,5.77,.02,11.54,.03,17.32-.35,.44-.64,.96-1.25,1.09Z" style="fill:#424753;"></path><path d="M462.67,223.95c-.37-.4-.87-.26-1.32-.35,3.15-.93,6.1-.44,8.75,1.45,1.43,1.01,2.49,1.58,2.79-.83,.04-.28,.19-.51,.7-.42,0,2.77,0,5.57,0,8.38,0,.28-.15,.55-.49,.49-.17-.03-.36-.19-.44-.35-.09-.17-.06-.4-.11-.6-1.64-6.16-3.61-7.71-9.88-7.77Z" style="fill:#2c2829;"></path><path d="M552.4,223.97c-.35-.4-.84-.28-1.28-.35,3.22-.96,6.25-.48,8.91,1.51,1.67,1.25,2.46,1.07,2.72-1.02,.01-.11,.14-.21,.23-.3,.04-.04,.12-.04,.46-.12,0,2.91,.04,5.77-.03,8.63-.02,.57-.55,.48-.83,.06-.14-.21-.17-.51-.23-.77-1.51-5.99-3.65-7.64-9.93-7.63Z" style="fill:#292627;"></path><path d="M309.23,237.12c-.41,.08-.91,.17-1.08-.26-.2-.5,.28-.47,.61-.47,.16,.24,.32,.49,.47,.73Z" style="fill:#7f7d7d;"></path><path d="M332.23,114.19c-.06,4.63-.95,8.97-4.42,12.39-2.67,2.63-5.98,3.5-9.6,3.3-2.25-.13-3.69-1.38-3.69-3.39-.02-7.8-.44-15.61,.38-23.39,.4-3.82,1.83-4.94,5.68-4.82,5.44,.16,9.32,3.38,10.79,8.99,.59,2.26,.88,4.57,.86,6.91Z" style="fill:#fefefe;"></path><path d="M98.19,106.79c.88,1.39,1.06,2.89,1.49,4.29,2.3,7.64,4.58,15.29,6.86,22.94,.66,2.2,.46,2.48-1.88,2.48-4.8,.01-9.59,.02-14.39,0-2.51-.01-2.75-.38-1.91-2.76,2.91-8.3,5.83-16.61,8.74-24.91,.25-.7,.45-1.41,1.1-2.04Z" style="fill:#fefefe;"></path><path d="M678.98,237.59c-1.79,.56-2.04-.65-1.94-2.48,.13-2.66,.08-5.34,.08-8,0-1.8,.88-2.61,2.66-2.59,2.42,.03,4.79,.3,5.93,2.8,1.23,2.68,1.29,5.49-.37,8.04-1.37,2.09-3.68,2.11-6.35,2.23Z" style="fill:#fefefe;"></path><path d="M301.55,243.07c0-1.37,.08-2.74-.02-4.09-.1-1.31,.44-1.71,1.65-1.57,.61,.07,1.23,0,1.84,.01,5.49,.16,8.03,3.64,6.53,8.92-.91,3.2-5.56,5.32-8.75,4.02-.84-.34-1.09-.98-1.1-1.78-.02-1.84,0-3.68,0-5.52-.05,0-.1,0-.15,0Z" style="fill:#fdfdfd;"></path><path d="M303.56,236.8c-1.7,.5-2.18-.4-2.05-2.26,.18-2.51,.15-5.04,.16-7.55,0-1.73,.87-2.41,2.53-2.47,3.68-.14,5.64,1.61,5.79,5.29,.2,4.77-1.67,6.9-6.42,7Z" style="fill:#fdfdfd;"></path><path d="M389,237.55c0-3.48,.03-6.97,0-10.45-.02-1.93,.94-2.62,2.8-2.65,6.35-.11,9.79,2.62,10.7,8.85,.47,3.25,.37,6.51-.24,9.77-1.22,6.57-6.18,8.05-11.4,7.64-1.47-.11-1.84-1.22-1.84-2.51,0-3.55,0-7.1,0-10.66Z" style="fill:#fefefe;"></path><path d="M525.66,223.96c4.1,1.13,5.9,4.31,6.79,8.03,1.14,4.75,.99,9.49-.95,14.08-1.06,2.51-2.72,4.4-5.42,5.2-4.85-.04-7.45-1.85-8.99-6.69-1.64-5.15-1.55-10.35,.53-15.38,1.45-3.52,3.95-5.67,8.05-5.24Z" style="fill:#fefefe;"></path></svg>